<svg xmlns="http://www.w3.org/2000/svg" width="60" height="60" viewbox="0 0 60 60"
                                    fill="none">
                                    <path
                                        d="M13.5583 7.59546C10.3487 7.59546 7.97382 10.4046 8.08015 13.4512C8.18215 16.3781 8.04962 20.1688 7.09527 23.2601C6.13807 26.3605 4.51923 28.3245 1.875 28.5768V31.4235C4.51923 31.6758 6.13807 33.6398 7.09527 36.74C8.04962 39.8315 8.18215 43.6223 8.08015 46.549C7.97382 49.5953 10.3487 52.4048 13.5588 52.4048H46.446C49.6555 52.4048 52.03 49.5955 51.9238 46.549C51.8218 43.6223 51.9543 39.8315 52.9085 36.74C53.8663 33.6398 55.4808 31.6758 58.125 31.4235V28.5768C55.4808 28.3245 53.8663 26.3605 52.9085 23.2601C51.9543 20.1692 51.8218 16.3781 51.9238 13.4512C52.03 10.4051 49.6555 7.59546 46.446 7.59546H13.5583ZM40.0105 35.1785C40.0105 39.3733 36.8815 41.9175 31.689 41.9175H22.8496C22.5967 41.9175 22.3542 41.817 22.1754 41.6383C21.9966 41.4595 21.8962 41.217 21.8962 40.964V19.0361C21.8962 18.7833 21.9966 18.5408 22.1754 18.362C22.3542 18.1832 22.5967 18.0827 22.8496 18.0827H31.6385C35.9683 18.0827 38.8097 20.4281 38.8097 24.029C38.8097 26.5565 36.8983 28.8193 34.4627 29.2155V29.3475C37.7783 29.7113 40.0105 32.007 40.0105 35.1785ZM30.725 21.105H25.685V28.224H29.93C33.2115 28.224 35.021 26.9025 35.021 24.5405C35.021 22.3272 33.465 21.105 30.725 21.105ZM25.685 31.0488V38.8943H30.9105C34.327 38.8943 36.137 37.5233 36.137 34.9468C36.137 32.3698 34.2765 31.0483 30.6908 31.0483L25.685 31.0488Z"
                                        fill="#7611EB" />
                                </svg>