<svg xmlns="http://www.w3.org/2000/svg" width="60" height="60" viewbox="0 0 60 60"
                                    fill="none">
                                    <path
                                        d="M30.002 5.41113C16.1895 5.41113 5.00195 16.5986 5.00195 30.4111C5.00195 41.4736 12.1582 50.8174 22.0957 54.1299C23.3457 54.3486 23.8145 53.5986 23.8145 52.9424C23.8145 52.3486 23.7832 50.3799 23.7832 48.2861C17.502 49.4424 15.877 46.7549 15.377 45.3486C15.0957 44.6299 13.877 42.4111 12.8145 41.8174C11.9395 41.3486 10.6895 40.1924 12.7832 40.1611C14.752 40.1299 16.1582 41.9736 16.627 42.7236C18.877 46.5049 22.4707 45.4424 23.9082 44.7861C24.127 43.1611 24.7832 42.0674 25.502 41.4424C19.9395 40.8174 14.127 38.6611 14.127 29.0986C14.127 26.3799 15.0957 24.1299 16.6895 22.3799C16.4395 21.7549 15.5645 19.1924 16.9395 15.7549C16.9395 15.7549 19.0332 15.0986 23.8145 18.3174C25.8145 17.7549 27.9395 17.4736 30.0645 17.4736C32.1895 17.4736 34.3145 17.7549 36.3145 18.3174C41.0958 15.0674 43.1895 15.7549 43.1895 15.7549C44.5645 19.1924 43.6895 21.7549 43.4395 22.3799C45.0332 24.1299 46.002 26.3486 46.002 29.0986C46.002 38.6924 40.1583 40.8174 34.5958 41.4424C35.502 42.2236 36.2833 43.7236 36.2833 46.0674C36.2833 49.4111 36.252 52.0986 36.252 52.9424C36.252 53.5986 36.7208 54.3799 37.9708 54.1299C48.147 50.6944 54.9992 41.1519 55.002 30.4111C55.002 16.5986 43.8145 5.41113 30.002 5.41113Z"
                                        fill="white" />
                                </svg>