<svg xmlns="http://www.w3.org/2000/svg" width="60" height="60" viewbox="0 0 60 60"
                                    fill="none">
                                    <path
                                        d="M8 0.733887C3.85788 0.733887 0.5 4.09176 0.5 8.23389L0.5 38.2339C0.5 42.3761 3.85788 45.7339 8 45.7339H38C42.1423 45.7339 45.5 42.3761 45.5 38.2339V8.23389C45.5 4.09176 42.1423 0.733887 38 0.733887L8 0.733887ZM26.336 33.3714C28.1327 34.8196 29.9293 35.5346 31.726 35.5164C32.826 35.5164 33.6693 35.3146 34.256 34.9114C34.8242 34.5264 35.1085 33.9764 35.1085 33.2614C35.1085 32.5281 34.8242 31.9046 34.256 31.3914C33.6693 30.8781 32.5602 30.3646 30.9285 29.8514C28.9668 29.2831 27.4542 28.5496 26.391 27.6514C25.346 26.7531 24.8143 25.4971 24.796 23.8839C24.796 22.3621 25.456 21.0881 26.776 20.0614C28.0592 19.0346 29.7002 18.5214 31.6985 18.5214C34.4852 18.5214 36.7218 19.1996 38.4085 20.5564L36.4835 23.5539C35.8053 23.0221 35.026 22.6371 34.146 22.3989C33.266 22.1239 32.4777 21.9864 31.781 21.9864C30.8277 21.9864 30.0667 22.1606 29.4985 22.5089C28.9302 22.8571 28.646 23.3156 28.646 23.8839C28.646 24.5071 28.9943 25.0389 29.691 25.4789C30.3878 25.9006 31.5792 26.3681 33.266 26.8814C35.301 27.4864 36.7493 28.2931 37.611 29.3014C38.4728 30.3096 38.9035 31.5931 38.9035 33.1514C38.9035 34.7464 38.2892 36.1214 37.061 37.2764C35.851 38.4131 34.091 39.0089 31.781 39.0639C28.756 39.0639 26.226 38.1564 24.191 36.3414L26.336 33.3714ZM12.5101 34.9664C13.0968 35.3331 13.8026 35.5164 14.6276 35.5164C15.4893 35.5164 16.2043 35.2689 16.7726 34.7739C17.341 34.2606 17.6251 33.3714 17.6251 32.1064V18.8514H21.3377L21.3377 32.8214C21.2828 34.9846 20.6593 36.5431 19.4678 37.4964C18.7892 38.0646 18.0467 38.4681 17.2401 38.7064C16.4335 38.9446 15.6543 39.0639 14.9026 39.0639C13.5276 39.0639 12.3085 38.8256 11.2451 38.3489C10.1085 37.8356 9.15512 36.9281 8.38512 35.6264L10.9701 33.5089C11.4468 34.1506 11.9601 34.6364 12.5101 34.9664Z"
                                        fill="#F4E11E" />
                                </svg>