<svg xmlns="http://www.w3.org/2000/svg" width="60" height="60" viewbox="0 0 60 60"
                                    fill="none">
                                    <path
                                        d="M8.95577 4.92025C12.805 1.84118 17.6875 0 23 0C28.3125 0 33.195 1.84118 37.0443 4.92025L40.6777 1.2868L44.2132 4.82233L40.5798 8.45577C43.6588 12.305 45.5 17.1875 45.5 22.5V25H0.5V22.5C0.5 17.1875 2.34118 12.305 5.42025 8.45577L1.7868 4.82233L5.32232 1.2868L8.95577 4.92025ZM0.5 30H45.5V47.5C45.5 48.8807 44.3807 50 43 50H3C1.6193 50 0.5 48.8807 0.5 47.5V30ZM15.5 17.5C16.8807 17.5 18 16.3807 18 15C18 13.6193 16.8807 12.5 15.5 12.5C14.1193 12.5 13 13.6193 13 15C13 16.3807 14.1193 17.5 15.5 17.5ZM30.5 17.5C31.8808 17.5 33 16.3807 33 15C33 13.6193 31.8808 12.5 30.5 12.5C29.1192 12.5 28 13.6193 28 15C28 16.3807 29.1192 17.5 30.5 17.5Z"
                                        fill="#3DDC84" />
                                </svg>