<svg xmlns="http://www.w3.org/2000/svg" width="60" height="60" viewbox="0 0 60 60"
                                    fill="none">
                                    <path
                                        d="M26.2182 1.22708C24.849 0.421703 23.151 0.421703 21.7817 1.22708L2.40677 12.6242C1.0705 13.4102 0.25 14.8448 0.25 16.3951L0.25 39.2503C0.25 40.8008 1.0705 42.2353 2.4068 43.0213L8.9649 46.879C12.2981 48.8398 16.5 46.4363 16.5 42.5693L16.5 17.1891H11.5V42.5693L5.25 38.8928L5.25 16.7526L24 5.72315L42.75 16.7526V38.8928L24 49.9223L19.579 47.3218L17.0439 51.6313L21.7817 54.4183C23.151 55.2238 24.849 55.2238 26.2182 54.4183L45.5932 43.0213C46.9295 42.2353 47.75 40.8008 47.75 39.2503V16.3951C47.75 14.8448 46.9295 13.4102 45.5932 12.6242L26.2182 1.22708ZM28.9997 16.5727C25.593 16.5727 23.178 17.4506 21.626 18.9976C20.084 20.5349 19.7837 22.3449 19.7837 23.401C19.7837 24.7883 20.1762 26.0453 20.9877 27.0848C21.769 28.086 22.7997 28.707 23.7865 29.1125C25.5852 29.8518 27.8395 30.0943 29.6467 30.2885L29.865 30.312C31.9435 30.5368 33.4995 30.7295 34.5657 31.1755C35.0472 31.377 35.2457 31.5613 35.3275 31.6675C35.381 31.7373 35.4835 31.8923 35.4835 32.317C35.4835 32.9773 35.2567 33.4025 34.551 33.8043C33.6825 34.2988 32.149 34.6718 29.842 34.6718C27.5545 34.6718 25.9595 34.249 25.048 33.618C24.3392 33.1273 23.8182 32.3753 23.9555 30.7435L18.9731 30.3245C18.7019 33.5478 19.8697 36.1145 22.202 37.729C24.3312 39.203 27.1295 39.6718 29.842 39.6718C32.535 39.6718 35.0723 39.261 37.0245 38.1495C39.1395 36.9455 40.4835 34.9433 40.4835 32.317C40.4835 30.9263 40.0952 29.665 39.2905 28.6188C38.5135 27.6088 37.4855 26.977 36.4952 26.5628C34.6752 25.8015 32.394 25.5558 30.574 25.3595L30.4022 25.341C28.3185 25.1158 26.759 24.9285 25.687 24.4878C25.202 24.2885 25.0062 24.107 24.929 24.0083C24.882 23.948 24.7837 23.8078 24.7837 23.401C24.7837 23.2073 24.8407 22.853 25.156 22.5387C25.4617 22.234 26.4045 21.5727 28.9997 21.5727C31.476 21.5727 32.9185 21.8356 33.7425 22.3244C34.2807 22.6437 34.8627 23.231 34.9402 25.155L39.9362 24.9538C39.8107 21.8396 38.6735 19.4359 36.2932 18.024C34.1987 16.7815 31.5235 16.5727 28.9997 16.5727Z"
                                        fill="#539E43" />
                                </svg>