<svg xmlns="http://www.w3.org/2000/svg" width="60" height="60" viewbox="0 0 60 60"
                                    fill="none">
                                    <path
                                        d="M30.002 33.7502C27.9308 33.7502 26.252 32.0712 26.252 30.0002C26.252 27.929 27.9308 26.2502 30.002 26.2502C32.073 26.2502 33.752 27.929 33.752 30.0002C33.752 32.0712 32.073 33.7502 30.002 33.7502ZM28.6827 41.2362C29.1193 41.7625 29.5593 42.27 30.002 42.7575C30.4445 42.27 30.8847 41.7625 31.321 41.2362C30.884 41.2455 30.4443 41.2502 30.002 41.2502C29.5595 41.2502 29.1198 41.2455 28.6827 41.2362ZM23.6954 40.9235C21.69 40.7115 19.7754 40.4007 17.9812 40.004C17.7953 40.878 17.6529 41.726 17.5556 42.5415C17.0835 46.5 17.7446 48.9042 18.752 49.4857C19.7593 50.0672 22.1718 49.4377 25.364 47.0497C26.0215 46.5577 26.6848 46.0105 27.3488 45.4122C26.108 44.057 24.8817 42.5542 23.6954 40.9235ZM42.0227 40.004C40.2285 40.4007 38.3137 40.7115 36.3085 40.9235C35.1222 42.5542 33.8957 44.057 32.655 45.4122C33.3192 46.0105 33.9823 46.5577 34.64 47.0497C37.832 49.4377 40.2447 50.0672 41.252 49.4857C42.2592 48.9042 42.9205 46.5 42.4483 42.5415C42.351 41.726 42.2085 40.878 42.0227 40.004ZM45.649 39.034C47.0905 45.6315 46.3315 50.8832 43.127 52.7332C39.9222 54.5835 34.9948 52.615 30.002 48.0677C25.009 52.615 20.0816 54.5835 16.877 52.7332C13.6723 50.8832 12.9134 45.6315 14.3549 39.034C7.92055 36.9837 3.75195 33.7005 3.75195 30.0002C3.75195 26.2997 7.92055 23.0167 14.3549 20.9663C12.9134 14.3688 13.6723 9.11717 16.877 7.267C20.0816 5.41682 25.009 7.38537 30.002 11.9325C34.9948 7.38537 39.9222 5.41682 43.127 7.267C46.3315 9.11717 47.0905 14.3688 45.649 20.9663C52.0833 23.0167 56.252 26.2997 56.252 30.0002C56.252 33.7005 52.0833 36.9837 45.649 39.034ZM27.3488 14.588C26.6848 13.9899 26.0215 13.4426 25.364 12.9506C22.1718 10.5625 19.7593 9.93302 18.752 10.5146C17.7446 11.0962 17.0835 13.5002 17.5556 17.4587C17.6529 18.2742 17.7953 19.1222 17.9812 19.9964C19.7754 19.5996 21.69 19.2889 23.6954 19.0769C24.8817 17.4462 26.108 15.9434 27.3488 14.588ZM36.3085 19.0769C38.3137 19.2889 40.2285 19.5996 42.0227 19.9964C42.2085 19.1222 42.351 18.2742 42.4483 17.4587C42.9205 13.5002 42.2592 11.0962 41.252 10.5146C40.2447 9.93302 37.832 10.5625 34.64 12.9506C33.9823 13.4426 33.3192 13.9899 32.655 14.588C33.8957 15.9434 35.1222 17.4462 36.3085 19.0769ZM31.321 18.7641C30.8847 18.2379 30.4445 17.7303 30.002 17.2428C29.5593 17.7303 29.1193 18.2379 28.6827 18.7641C29.1198 18.7548 29.5595 18.7502 30.002 18.7502C30.4443 18.7502 30.884 18.7548 31.321 18.7641ZM20.9308 36.7605C20.7043 36.3867 20.4803 36.0082 20.2592 35.6252C20.038 35.242 19.8222 34.8587 19.6117 34.4757C19.3741 35.1167 19.1546 35.7517 18.9537 36.3787C19.5972 36.5185 20.2569 36.6457 20.9308 36.7605ZM25.7618 37.3442C27.1443 37.447 28.5623 37.5002 30.002 37.5002C31.4418 37.5002 32.8595 37.447 34.242 37.3442C35.0222 36.1982 35.7772 34.997 36.4972 33.7502C37.217 32.5032 37.88 31.2487 38.482 30.0002C37.88 28.7515 37.217 27.497 36.4972 26.2502C35.7772 25.0032 35.0222 23.802 34.242 22.6561C32.8595 22.5533 31.4418 22.5002 30.002 22.5002C28.5623 22.5002 27.1443 22.5533 25.7618 22.6561C24.9816 23.802 24.2267 25.0032 23.5068 26.2502C22.7869 27.497 22.124 28.7515 21.5218 30.0002C22.124 31.2487 22.7869 32.5032 23.5068 33.7502C24.2267 34.997 24.9816 36.1982 25.7618 37.3442ZM40.3923 25.5245C40.6297 24.8835 40.8492 24.2485 41.0502 23.6215C40.4067 23.4819 39.747 23.3545 39.073 23.2398C39.2995 23.6136 39.5235 23.9921 39.7447 24.3752C39.966 24.7582 40.1818 25.1415 40.3923 25.5245ZM15.3281 24.5918C14.4781 24.8678 13.6724 25.1685 12.9176 25.492C9.25335 27.0625 7.50195 28.837 7.50195 30.0002C7.50195 31.1632 9.25335 32.938 12.9176 34.5082C13.6724 34.8317 14.4781 35.1325 15.3281 35.4085C15.8815 33.6562 16.5698 31.8427 17.3889 30.0002C16.5698 28.1575 15.8815 26.344 15.3281 24.5918ZM18.9537 23.6215C19.1546 24.2485 19.3741 24.8835 19.6117 25.5245C19.8222 25.1415 20.038 24.7582 20.2592 24.3752C20.4803 23.9921 20.7043 23.6136 20.9308 23.2398C20.2569 23.3545 19.5972 23.4819 18.9537 23.6215ZM44.6758 35.4085C45.5258 35.1325 46.3315 34.8317 47.0862 34.5082C50.7505 32.938 52.502 31.1632 52.502 30.0002C52.502 28.837 50.7505 27.0625 47.0862 25.492C46.3315 25.1685 45.5258 24.8678 44.6758 24.5918C44.1223 26.344 43.4342 28.1575 42.615 30.0002C43.4342 31.8427 44.1223 33.6562 44.6758 35.4085ZM41.0502 36.3787C40.8492 35.7517 40.6297 35.1167 40.3923 34.4757C40.1818 34.8587 39.966 35.242 39.7447 35.6252C39.5235 36.0082 39.2995 36.3867 39.073 36.7605C39.747 36.6457 40.4067 36.5185 41.0502 36.3787Z"
                                        fill="#61DAFB" />
                                </svg>