<svg xmlns="http://www.w3.org/2000/svg" width="60" height="60" viewbox="0 0 60 60"
                                    fill="none">
                                    <path
                                        d="M30 12.1499C22.0667 12.1499 17.1083 16.1166 15.125 24.0499C18.1 20.0832 21.5708 18.5957 25.5375 19.5874C27.801 20.1527 29.4175 21.7939 31.2097 23.6136C34.1277 26.5737 37.502 29.9999 44.875 29.9999C52.8082 29.9999 57.7667 26.0332 59.75 18.0999C56.775 22.0666 53.3042 23.5541 49.3375 22.5624C47.074 21.9972 45.4577 20.3559 43.6652 18.5362C40.7497 15.5761 37.3755 12.1499 30 12.1499ZM15.125 29.9999C7.19168 29.9999 2.23333 33.9667 0.25 41.8999C3.225 37.9332 6.69583 36.4457 10.6625 37.4374C12.926 38.0027 14.5424 39.6439 16.3348 41.4637C19.2528 44.4237 22.627 47.8499 30 47.8499C37.9332 47.8499 42.8917 43.8832 44.875 35.9499C41.9 39.9167 38.4292 41.4042 34.4625 40.4124C32.199 39.8472 30.5825 38.2059 28.7902 36.3862C25.8747 33.4262 22.5005 29.9999 15.125 29.9999Z"
                                        fill="#38BDF8" />
                                </svg>